<svg xmlns="http://www.w3.org/2000/svg" xmlns:oryx="http://oryx-editor.org" id="_C59DD06E-0873-47E9-84C3-CD8C0E02DB54" width="841" height="421.671875" xmlns:xlink="http://www.w3.org/1999/xlink" xmlns:svg="http://www.w3.org/2000/svg"><defs><marker id="_EEBE2E04-FF0D-4005-97EF-3E54659EDC99start" refX="1" refY="5" markerUnits="userSpaceOnUse" markerWidth="17" markerHeight="11" orient="auto" fill="#000000" stroke="#000000"> 	  		<path id="_EEBE2E04-FF0D-4005-97EF-3E54659EDC99conditional" d="M 0 5 L 8 0 L 16 5 L 8 10 L 0 5" fill="white" stroke="#000000" stroke-width="1" display="none"/> 			<path id="_EEBE2E04-FF0D-4005-97EF-3E54659EDC99default" d="M 5 0 L 11 10" fill="white" stroke="#000000" stroke-width="1" display="none"/> 	  	</marker><marker id="_EEBE2E04-FF0D-4005-97EF-3E54659EDC99end" refX="15" refY="6" markerUnits="userSpaceOnUse" markerWidth="15" markerHeight="12" orient="auto" fill="#000000" stroke="#000000"> 	  		<path id="_EEBE2E04-FF0D-4005-97EF-3E54659EDC99frame2" d="M 0 1 L 15 6 L 0 11z" fill="#000000" stroke="#000000" stroke-linejoin="round" stroke-width="2"/> 	  	</marker><marker id="_6E9C88E7-FD7F-424D-AFC5-6A858A11B29Fstart" refX="1" refY="5" markerUnits="userSpaceOnUse" markerWidth="17" markerHeight="11" orient="auto" fill="#000000" stroke="#000000"> 	  		<path id="_6E9C88E7-FD7F-424D-AFC5-6A858A11B29Fconditional" d="M 0 5 L 8 0 L 16 5 L 8 10 L 0 5" fill="white" stroke="#000000" stroke-width="1" display="none"/> 			<path id="_6E9C88E7-FD7F-424D-AFC5-6A858A11B29Fdefault" d="M 5 0 L 11 10" fill="white" stroke="#000000" stroke-width="1" display="none"/> 	  	</marker><marker id="_6E9C88E7-FD7F-424D-AFC5-6A858A11B29Fend" refX="15" refY="6" markerUnits="userSpaceOnUse" markerWidth="15" markerHeight="12" orient="auto" fill="#000000" stroke="#000000"> 	  		<path id="_6E9C88E7-FD7F-424D-AFC5-6A858A11B29Fframe2" d="M 0 1 L 15 6 L 0 11z" fill="#000000" stroke="#000000" stroke-linejoin="round" stroke-width="2"/> 	  	</marker><marker id="_C93B31F8-B99D-4A32-B3C2-E4533387F4C6start" refX="1" refY="5" markerUnits="userSpaceOnUse" markerWidth="17" markerHeight="11" orient="auto" fill="#000000" stroke="#000000"> 	  		<path id="_C93B31F8-B99D-4A32-B3C2-E4533387F4C6conditional" d="M 0 5 L 8 0 L 16 5 L 8 10 L 0 5" fill="white" stroke="#000000" stroke-width="1" display="none"/> 			<path id="_C93B31F8-B99D-4A32-B3C2-E4533387F4C6default" d="M 5 0 L 11 10" fill="white" stroke="#000000" stroke-width="1" display="none"/> 	  	</marker><marker id="_C93B31F8-B99D-4A32-B3C2-E4533387F4C6end" refX="15" refY="6" markerUnits="userSpaceOnUse" markerWidth="15" markerHeight="12" orient="auto" fill="#000000" stroke="#000000"> 	  		<path id="_C93B31F8-B99D-4A32-B3C2-E4533387F4C6frame2" d="M 0 1 L 15 6 L 0 11z" fill="#000000" stroke="#000000" stroke-linejoin="round" stroke-width="2"/> 	  	</marker><marker id="_C8CC0E38-2AD4-4397-9380-9552FF04A9C5start" refX="1" refY="5" markerUnits="userSpaceOnUse" markerWidth="17" markerHeight="11" orient="auto" fill="#000000" stroke="#000000"> 	  		<path id="_C8CC0E38-2AD4-4397-9380-9552FF04A9C5conditional" d="M 0 5 L 8 0 L 16 5 L 8 10 L 0 5" fill="white" stroke="#000000" stroke-width="1" display="none"/> 			<path id="_C8CC0E38-2AD4-4397-9380-9552FF04A9C5default" d="M 5 0 L 11 10" fill="white" stroke="#000000" stroke-width="1" display="none"/> 	  	</marker><marker id="_C8CC0E38-2AD4-4397-9380-9552FF04A9C5end" refX="15" refY="6" markerUnits="userSpaceOnUse" markerWidth="15" markerHeight="12" orient="auto" fill="#000000" stroke="#000000"> 	  		<path id="_C8CC0E38-2AD4-4397-9380-9552FF04A9C5frame2" d="M 0 1 L 15 6 L 0 11z" fill="#000000" stroke="#000000" stroke-linejoin="round" stroke-width="2"/> 	  	</marker><marker id="_9F21BEF1-F9B1-46FE-81FE-C23B5BB87DBBstart" refX="1" refY="5" markerUnits="userSpaceOnUse" markerWidth="17" markerHeight="11" orient="auto" fill="#000000" stroke="#000000"> 	  		<path id="_9F21BEF1-F9B1-46FE-81FE-C23B5BB87DBBconditional" d="M 0 5 L 8 0 L 16 5 L 8 10 L 0 5" fill="white" stroke="#000000" stroke-width="1" display="none"/> 			<path id="_9F21BEF1-F9B1-46FE-81FE-C23B5BB87DBBdefault" d="M 5 0 L 11 10" fill="white" stroke="#000000" stroke-width="1" display="none"/> 	  	</marker><marker id="_9F21BEF1-F9B1-46FE-81FE-C23B5BB87DBBend" refX="15" refY="6" markerUnits="userSpaceOnUse" markerWidth="15" markerHeight="12" orient="auto" fill="#000000" stroke="#000000"> 	  		<path id="_9F21BEF1-F9B1-46FE-81FE-C23B5BB87DBBframe2" d="M 0 1 L 15 6 L 0 11z" fill="#000000" stroke="#000000" stroke-linejoin="round" stroke-width="2"/> 	  	</marker></defs><g stroke="none" font-family="Verdana, sans-serif" font-size-adjust="none" font-style="normal" font-variant="normal" font-weight="normal" line-heigth="normal" font-size="12"><g class="stencils" transform="translate(14.999999046325684, 15.671873092651367)"><g class="me"/><g class="children"><g id="_2A218990-9C11-4FC3-AA19-347B2B5ABD1C" bpmn2nodeid="_62A89253-A259-49F0-AC09-5C9091DB87CA"><g class="stencils" transform="translate(10, 40)"><g class="me"><g pointer-events="painted" id="_2A218990-9C11-4FC3-AA19-347B2B5ABD1C">         <defs id="_2A218990-9C11-4FC3-AA19-347B2B5ABD1C__2A218990-9C11-4FC3-AA19-347B2B5ABD1C_3"> 		<radialGradient id="_2A218990-9C11-4FC3-AA19-347B2B5ABD1Cbackground" cx="0%" cy="10%" r="100%" fx="20%" fy="10%"> 			<stop offset="0%" stop-color="#ffffff" stop-opacity="1" id="_2A218990-9C11-4FC3-AA19-347B2B5ABD1C__2A218990-9C11-4FC3-AA19-347B2B5ABD1C_4"/> 			<stop id="_2A218990-9C11-4FC3-AA19-347B2B5ABD1Cfill_el" offset="100%" stop-color="#ffffff" stop-opacity="1"/> 		</radialGradient> 	</defs> 	   	 	<rect id="_2A218990-9C11-4FC3-AA19-347B2B5ABD1Cborder" oryx:resize="vertical horizontal" x="0" y="0" width="791" height="150" stroke="#000000" stroke-width="1" fill="url(#_2A218990-9C11-4FC3-AA19-347B2B5ABD1Cbackground) white"/> 	 	 	 	<path id="_2A218990-9C11-4FC3-AA19-347B2B5ABD1Cframe2" style="fill:none;stroke-width:1" d=" M0 0  L0 150 " oryx:anchors="left top bottom" stroke="#000000"/> 	 	undefined 	     <text x="50" y="75" oryx:rotate="270" font-size="12" id="_2A218990-9C11-4FC3-AA19-347B2B5ABD1Ctext_name" oryx:align="middle center" oryx:anchors="left" oryx:fittoelem="frame" stroke="black" stroke-width="0pt" letter-spacing="-0.01px" fill="#000000" text-anchor="middle" transform="rotate(270 50 75)" visibility="inherit" oryx:fontSize="12"><tspan x="50" y="75" dy="5">Proyector</tspan></text>   </g></g><g class="children" style="overflow:hidden"><g id="_8D9F5539-7CE0-4035-87C0-A50CFC808CE2" bpmn2nodeid="_5527A555-9D48-44F0-839A-38A657219A80"><g class="stencils" transform="translate(70, 48)"><g class="me"><g pointer-events="fill" id="_8D9F5539-7CE0-4035-87C0-A50CFC808CE2">        <defs id="_8D9F5539-7CE0-4035-87C0-A50CFC808CE2__8D9F5539-7CE0-4035-87C0-A50CFC808CE2_5"> 		<radialGradient id="_8D9F5539-7CE0-4035-87C0-A50CFC808CE2background" cx="10%" cy="10%" r="100%" fx="10%" fy="10%"> 			<stop offset="0%" stop-color="#ffffff" stop-opacity="1" id="_8D9F5539-7CE0-4035-87C0-A50CFC808CE2__8D9F5539-7CE0-4035-87C0-A50CFC808CE2_6"/> 			<stop id="_8D9F5539-7CE0-4035-87C0-A50CFC808CE2fill_el" offset="100%" stop-color="#9acd32" stop-opacity="1"/> 		</radialGradient> 	</defs> 	     <circle id="_8D9F5539-7CE0-4035-87C0-A50CFC808CE2bg_frame" cx="15" cy="15" r="15" stroke="#000000" fill="url(#_8D9F5539-7CE0-4035-87C0-A50CFC808CE2background) white" stroke-width="1" style="stroke-dasharray: 5.5, 3"/>      <circle id="_8D9F5539-7CE0-4035-87C0-A50CFC808CE2frame" cx="15" cy="15" r="15" stroke="#000000" fill="none" stroke-width="1" display="inherit"/>  	<text font-size="11" id="_8D9F5539-7CE0-4035-87C0-A50CFC808CE2text_name" x="15" y="32" oryx:align="top center" stroke="black" stroke-width="0pt" letter-spacing="-0.01px" fill="#000000" text-anchor="middle" transform="rotate(0 15 32)" visibility="inherit" oryx:fontSize="11"><tspan x="15" y="32" dy="11">Iniciar</tspan></text>   </g></g><g class="children" style="overflow:hidden"/><g class="edge"/></g><g class="controls"><g class="dockers"/><g class="magnets" transform="translate(70, 48)"><g pointer-events="all" display="none" transform="translate(7, 7)"><circle cx="8" cy="8" r="4" stroke="none" fill="red" fill-opacity="0.3"/></g></g></g></g><g id="_E6211192-5850-42E9-BBE1-721FC50A7F2D" bpmn2nodeid="_F39F2A30-EA96-43F6-AE10-6B9A8C51371F"><g class="stencils" transform="translate(255, 46)"><g class="me"><g id="_E6211192-5850-42E9-BBE1-721FC50A7F2D">      <defs id="_E6211192-5850-42E9-BBE1-721FC50A7F2D__E6211192-5850-42E9-BBE1-721FC50A7F2D_4"> 		<radialGradient id="_E6211192-5850-42E9-BBE1-721FC50A7F2Dbackground" cx="10%" cy="10%" r="100%" fx="10%" fy="10%"> 			<stop offset="0%" stop-color="#ffffff" stop-opacity="1" id="_E6211192-5850-42E9-BBE1-721FC50A7F2D__E6211192-5850-42E9-BBE1-721FC50A7F2D_5"/> 			<stop id="_E6211192-5850-42E9-BBE1-721FC50A7F2Dfill_el" offset="100%" stop-color="#f0e68c" stop-opacity="1"/> 		</radialGradient> 	</defs> 	     <path d=" M0 20.5  L20.5 0  L40 20.5  L20.5 40  z" id="_E6211192-5850-42E9-BBE1-721FC50A7F2Dbg_frame" fill="url(#_E6211192-5850-42E9-BBE1-721FC50A7F2Dbackground) white" style="stroke-width:1" stroke="#a67f00"/>     <circle id="_E6211192-5850-42E9-BBE1-721FC50A7F2Dframe" cx="20.5" cy="20.5" r="9.75" style="fill:none;stroke-width:2.5" stroke="#a67f00"/>      	<text id="_E6211192-5850-42E9-BBE1-721FC50A7F2Dtext_name" x="30.5" y="30.5" oryx:align="left top" stroke-width="0pt" letter-spacing="-0.01px" fill="#000000" text-anchor="start" transform="rotate(0 30.5 30.5)" visibility="inherit" oryx:fontSize="12"/> 	   </g></g><g class="children" style="overflow:hidden"/><g class="edge"/></g><g class="controls"><g class="dockers"/><g class="magnets" transform="translate(255, 46)"><g pointer-events="all" display="none" transform="translate(12.5, 12.5)"><circle cx="8" cy="8" r="4" stroke="none" fill="red" fill-opacity="0.3"/></g></g></g></g><g id="_CFAE7DC5-E98F-459B-B175-24383C004F79" bpmn2nodeid="_8A996FB9-F905-4C22-90E4-7418CE790566"><g class="stencils" transform="translate(365, 33)"><g class="me"><g pointer-events="fill" oryx:minimumSize="50 40" id="_CFAE7DC5-E98F-459B-B175-24383C004F79">   	<defs id="_CFAE7DC5-E98F-459B-B175-24383C004F79__CFAE7DC5-E98F-459B-B175-24383C004F79_17"> 		<radialGradient id="_CFAE7DC5-E98F-459B-B175-24383C004F79background" cx="10%" cy="10%" r="100%" fx="10%" fy="10%"> 			<stop offset="0%" stop-color="#ffffff" stop-opacity="1" id="_CFAE7DC5-E98F-459B-B175-24383C004F79__CFAE7DC5-E98F-459B-B175-24383C004F79_18"/> 			<stop id="_CFAE7DC5-E98F-459B-B175-24383C004F79fill_el" offset="100%" stop-color="#fafad2" stop-opacity="1"/> 		</radialGradient> 		<radialGradient id="_CFAE7DC5-E98F-459B-B175-24383C004F79borderbackground" cx="10%" cy="10%" r="100%" fx="10%" fy="10%"> 			<stop offset="0%" stop-color="#ffffff" stop-opacity="1" id="_CFAE7DC5-E98F-459B-B175-24383C004F79__CFAE7DC5-E98F-459B-B175-24383C004F79_19"/> 			<stop id="_CFAE7DC5-E98F-459B-B175-24383C004F79fill_border" offset="100%" stop-color="#000000" stop-opacity="1" stroke="#000000"/> 		</radialGradient> 	</defs> 	 	<rect id="_CFAE7DC5-E98F-459B-B175-24383C004F79text_frame" oryx:anchors="bottom top right left" x="1" y="1" width="164" height="65" rx="10" ry="10" stroke="none" stroke-width="0" fill="none"/> 	<rect id="_CFAE7DC5-E98F-459B-B175-24383C004F79bg_frame" oryx:resize="vertical horizontal" x="0" y="0" width="170" height="66" rx="10" ry="10" stroke="#000000" stroke-width="1" fill="url(#_CFAE7DC5-E98F-459B-B175-24383C004F79background) #ffffcc"/> 		<text font-size="12" id="_CFAE7DC5-E98F-459B-B175-24383C004F79text_name" x="85" y="33" oryx:align="middle center" oryx:fittoelem="text_frame" stroke="black" text-anchor="middle" stroke-width="0pt" letter-spacing="-0.01px" fill="#000000" transform="rotate(0 85 33)" visibility="inherit" oryx:fontSize="12"><tspan x="85" y="33" dy="-1" id="ext-gen607">Gestión Producción </tspan><tspan x="85" y="33" dy="11" id="ext-gen606">Múltiples Documentos</tspan></text>     <g id="_CFAE7DC5-E98F-459B-B175-24383C004F79manualTask" transform="scale(0.7,0.7) translate(8,8)" display="none">     	<path oryx:anchors="top left" id="_CFAE7DC5-E98F-459B-B175-24383C004F79frame" style="opacity:1;fill:none;fill-opacity:1;stroke-width:1" d="M0.5,3.751l4.083-3.25c0,0,11.166,0.083,12.083,0.083s-2.417,2.917-1.5,2.917     s11.667,0,12.584,0c1.166,1.708-0.168,3.167-0.834,3.667s0.875,1.917-1,4.417c-0.75,0.25,0.75,1.875-1.333,3.333     c-1.167,0.583,0.583,1.542-1.25,2.833c-1.167,0-20.833,0.083-20.833,0.083l-2-1.333V3.751z" stroke="#000000"/> 		<path id="_CFAE7DC5-E98F-459B-B175-24383C004F79frame2" oryx:anchors="top left" style="opacity:1;fill:none;stroke-width:2" d="M 13.5 7 L 27 7" stroke="#000000"/> 		<path id="_CFAE7DC5-E98F-459B-B175-24383C004F79frame3" oryx:anchors="top left" style="opacity:1;fill:none;stroke-width:2" d="M 13.5 11 L 26 11" stroke="#000000"/> 		<path id="_CFAE7DC5-E98F-459B-B175-24383C004F79frame4" oryx:anchors="top left" style="opacity:1;fill:none;stroke-width:1.5" d="M 14 14.5 L 25 14.5" stroke="#000000"/> 		<path id="_CFAE7DC5-E98F-459B-B175-24383C004F79frame5" oryx:anchors="top left" style="opacity:1;fill:none;stroke-width:1.5" d="M 8.2 3.1 L 15 3.1" stroke="#000000"/> 	</g> 	 	<g id="_CFAE7DC5-E98F-459B-B175-24383C004F79businessRuleTask" transform="scale(0.7,0.7) translate(8,8)" display="none"> 		<rect id="_CFAE7DC5-E98F-459B-B175-24383C004F79frame6" oryx:anchors="top left" x="0" y="0" width="22" height="4" style="opacity:1;fill:#B3B1B3;fill-opacity:1;" stroke="#000000"/> 		<rect id="_CFAE7DC5-E98F-459B-B175-24383C004F79frame7" oryx:anchors="top left" x="0" y="4" style="opacity:1;fill:none;" width="22" height="12" stroke="#000000"/> 		<path id="_CFAE7DC5-E98F-459B-B175-24383C004F79frame8" oryx:anchors="top left" style="opacity:1;fill:none;" d="M 0 10 L 22 10" stroke="#000000"/> 		<path id="_CFAE7DC5-E98F-459B-B175-24383C004F79frame9" oryx:anchors="top left" style="opacity:1; fill:none;" d="M 7 4 L 7 16" stroke="#000000"/> 	</g> 	 	<g id="_CFAE7DC5-E98F-459B-B175-24383C004F79scriptTask" transform="scale(0.7,0.7) translate(8,8)" display="none"> 		<path oryx:anchors="top left" id="_CFAE7DC5-E98F-459B-B175-24383C004F79frame10" style="opacity:1;fill:none;" stroke="#000000" d="M6.402,0.5h14.5c0,0-5.833,2.833-5.833,5.583s4.417,6,4.417,9.167    s-4.167,5.083-4.167,5.083H0.235c0,0,5-2.667,5-5s-4.583-6.75-4.583-9.25S6.402,0.5,6.402,0.5z"/> 		<path oryx:anchors="top left" id="_CFAE7DC5-E98F-459B-B175-24383C004F79frame11" style="opacity:1;fill:none;stroke-width:1.5" d="M 3.5 4.5 L 13.5 4.5" stroke="#000000"/> 		<path oryx:anchors="top left" id="_CFAE7DC5-E98F-459B-B175-24383C004F79frame12" style="opacity:1;fill:none;stroke-width:1.5" d="M 3.8 8.5 L 13.8 8.5" stroke="#000000"/> 		<path oryx:anchors="top left" id="_CFAE7DC5-E98F-459B-B175-24383C004F79frame13" style="opacity:1;fill:none;stroke-width:1.5" d="M 6.3 12.5 L 16.3 12.5" stroke="#000000"/> 		<path oryx:anchors="top left" id="_CFAE7DC5-E98F-459B-B175-24383C004F79frame14" style="opacity:1;fill:none;stroke-width:1.5" d="M 6.5 16.5 L 16.5 16.5" stroke="#000000"/> 	</g> 	 	<g id="_CFAE7DC5-E98F-459B-B175-24383C004F79userTask" transform="scale(0.7,0.7) translate(8,8)" display="inherit"> 		<path id="_CFAE7DC5-E98F-459B-B175-24383C004F79frame15" oryx:anchors="top left" style="opacity:1;fill:#F4F6F7" stroke="#000000" d="M0.585,24.167h24.083v-7.833c0,0-2.333-3.917-7.083-5.167h-9.25    c-4.417,1.333-7.833,5.75-7.833,5.75L0.585,24.167z"/> 		<path id="_CFAE7DC5-E98F-459B-B175-24383C004F79frame16" oryx:anchors="top left" style="opacity:1;fill:none" d="M 6 20 L 6 24" stroke="#000000"/> 		<path id="_CFAE7DC5-E98F-459B-B175-24383C004F79frame17" oryx:anchors="top left" style="opacity:1;fill:none" d="M 20 20 L 20 24" stroke="#000000"/> 		<circle id="_CFAE7DC5-E98F-459B-B175-24383C004F79frame18" oryx:anchors="top left" fill="black" cx="13.002" cy="5.916" r="5.417" stroke="#000000"/> 		<path id="_CFAE7DC5-E98F-459B-B175-24383C004F79frame19" oryx:anchors="top left" style="opacity:1;fill:#F0EFF0;" stroke="#000000" d="M8.043,7.083c0,0,2.814-2.426,5.376-1.807s4.624-0.693,4.624-0.693    c0.25,1.688,0.042,3.75-1.458,5.584c0,0,1.083,0.75,1.083,1.5s0.125,1.875-1,3s-5.5,1.25-6.75,0S8.668,12.834,8.668,12    s0.583-1.25,1.25-1.917C8.835,9.5,7.419,7.708,8.043,7.083z"/> 	</g> 	 	<g id="_CFAE7DC5-E98F-459B-B175-24383C004F79serviceTask" transform="scale(0.7,0.7) translate(8,8)" display="none"> 		<polygon oryx:anchors="top left" id="_CFAE7DC5-E98F-459B-B175-24383C004F79frame20" style="opacity:1;fill:#ffffff" stroke="#000000" points="15.392,5.064 17.954,2.502 20.347,4.895 17.786,7.455     18.729,9.732 22.353,9.732 22.353,13.115 18.731,13.115 17.788,15.392 20.351,17.955 17.958,20.347 15.397,17.786 13.12,18.729     13.12,22.353 9.737,22.353 9.737,18.731 7.46,17.788 4.897,20.35 2.506,17.958 5.066,15.397 4.124,13.12 0.5,13.12 0.5,9.737     4.121,9.737 5.065,7.461 2.503,4.898 4.895,2.506 7.455,5.066 9.732,4.125 9.732,0.5 13.116,0.5 13.116,4.121 "/> 		<circle oryx:anchors="top left" id="_CFAE7DC5-E98F-459B-B175-24383C004F79frame21" style="opacity:1;fill:none" stroke="#000000" cx="11.427" cy="11.426" r="3.714"/> 		<polygon oryx:anchors="top left" id="_CFAE7DC5-E98F-459B-B175-24383C004F79frame22" style="opacity:1;fill:#ffffff" stroke="#000000" points="21.392,11.064 23.954,8.502 26.347,10.895 23.786,13.455     24.729,15.732 28.353,15.732 28.353,19.115 24.731,19.115 23.788,21.392 26.351,23.955 23.958,26.347 21.397,23.786 19.12,24.729     19.12,28.353 15.737,28.353 15.737,24.731 13.46,23.788 10.897,26.35 8.506,23.958 11.066,21.397 10.124,19.12 6.5,19.12     6.5,15.737 10.121,15.737 11.065,13.461 8.503,10.898 10.895,8.506 13.455,11.066 15.732,10.125 15.732,6.5 19.116,6.5     19.116,10.121 "/> 		<circle oryx:anchors="top left" id="_CFAE7DC5-E98F-459B-B175-24383C004F79frame23" style="opacity:1;fill:none;" stroke="#000000" cx="17.427" cy="17.426" r="3.714"/> 	</g> 	 	<g id="_CFAE7DC5-E98F-459B-B175-24383C004F79sendTask" display="none"> 		<path id="_CFAE7DC5-E98F-459B-B175-24383C004F79stframe24" oryx:anchors="left top" stroke="#FFFFFF" fill="black" stroke-width="1" d="M8,11 L8,21 L24,21 L24,11 L16,17z"/> 		<path id="_CFAE7DC5-E98F-459B-B175-24383C004F79stframe25" oryx:anchors="left top" stroke="#FFFFFF" fill="black" stroke-width="1" d="M7,10 L16,17 L25 10z"/> 	</g> 	 	<g id="_CFAE7DC5-E98F-459B-B175-24383C004F79receiveTask" display="none"> 		<path id="_CFAE7DC5-E98F-459B-B175-24383C004F79frame26" oryx:anchors="left top" stroke="#000000" fill="none" stroke-width="1" d="M8,11 L8,21 L24,21 L24,11z M8,11 L16,17 L24,11"/> 	</g> 	 	<g id="_CFAE7DC5-E98F-459B-B175-24383C004F79none" display="inherit"/>  	<g id="_CFAE7DC5-E98F-459B-B175-24383C004F79sequential" display="none">         <path oryx:anchors="bottom" fill="none" stroke="#000000" stroke-width="2" d=" M81.7 62  h10  M81.7 58  h10  M81.7 54  h10 " id="_CFAE7DC5-E98F-459B-B175-24383C004F79__CFAE7DC5-E98F-459B-B175-24383C004F79_20"/>     </g>   </g></g><g class="children" style="overflow:hidden"/><g class="edge"/></g><g class="controls"><g class="dockers"/><g class="magnets" transform="translate(365, 33)"><g pointer-events="all" display="none" transform="translate(-7, 8.5)"><circle cx="8" cy="8" r="4" stroke="none" fill="red" fill-opacity="0.3"/></g><g pointer-events="all" display="none" transform="translate(-7, 25)"><circle cx="8" cy="8" r="4" stroke="none" fill="red" fill-opacity="0.3"/></g><g pointer-events="all" display="none" transform="translate(-7, 41.5)"><circle cx="8" cy="8" r="4" stroke="none" fill="red" fill-opacity="0.3"/></g><g pointer-events="all" display="none" transform="translate(34.5, 57)"><circle cx="8" cy="8" r="4" stroke="none" fill="red" fill-opacity="0.3"/></g><g pointer-events="all" display="none" transform="translate(77, 57)"><circle cx="8" cy="8" r="4" stroke="none" fill="red" fill-opacity="0.3"/></g><g pointer-events="all" display="none" transform="translate(119.5, 57)"><circle cx="8" cy="8" r="4" stroke="none" fill="red" fill-opacity="0.3"/></g><g pointer-events="all" display="none" transform="translate(161, 8.5)"><circle cx="8" cy="8" r="4" stroke="none" fill="red" fill-opacity="0.3"/></g><g pointer-events="all" display="none" transform="translate(161, 25)"><circle cx="8" cy="8" r="4" stroke="none" fill="red" fill-opacity="0.3"/></g><g pointer-events="all" display="none" transform="translate(161, 41.5)"><circle cx="8" cy="8" r="4" stroke="none" fill="red" fill-opacity="0.3"/></g><g pointer-events="all" display="none" transform="translate(34.5, -7)"><circle cx="8" cy="8" r="4" stroke="none" fill="red" fill-opacity="0.3"/></g><g pointer-events="all" display="none" transform="translate(77, -7)"><circle cx="8" cy="8" r="4" stroke="none" fill="red" fill-opacity="0.3"/></g><g pointer-events="all" display="none" transform="translate(119.5, -7)"><circle cx="8" cy="8" r="4" stroke="none" fill="red" fill-opacity="0.3"/></g><g pointer-events="all" display="none" transform="translate(77, 25)"><circle cx="8" cy="8" r="4" stroke="none" fill="red" fill-opacity="0.3"/></g></g></g></g><g id="_FFADA852-B5A1-4609-A455-E4058EE208B3" bpmn2nodeid="_86A5CA88-0676-424E-AB3D-AFFCE0F25F3D"><g class="stencils" transform="translate(695, 52)"><g class="me"><g pointer-events="fill" id="_FFADA852-B5A1-4609-A455-E4058EE208B3">      <defs id="_FFADA852-B5A1-4609-A455-E4058EE208B3__FFADA852-B5A1-4609-A455-E4058EE208B3_5"> 		<radialGradient id="_FFADA852-B5A1-4609-A455-E4058EE208B3background" cx="10%" cy="10%" r="100%" fx="10%" fy="10%"> 			<stop offset="0%" stop-color="#ffffff" stop-opacity="1" id="_FFADA852-B5A1-4609-A455-E4058EE208B3__FFADA852-B5A1-4609-A455-E4058EE208B3_6"/> 			<stop id="_FFADA852-B5A1-4609-A455-E4058EE208B3fill_el" offset="100%" stop-color="#ff6347" stop-opacity="1"/> 		</radialGradient> 	</defs> 	     <circle id="_FFADA852-B5A1-4609-A455-E4058EE208B3bg_frame" cx="14" cy="14" r="14" stroke="#000000" fill="url(#_FFADA852-B5A1-4609-A455-E4058EE208B3background) white" stroke-width="3"/> 	<text font-size="11" id="_FFADA852-B5A1-4609-A455-E4058EE208B3text_name" x="14" y="30" oryx:align="top center" stroke="black" stroke-width="0pt" letter-spacing="-0.01px" fill="#000000" text-anchor="middle" transform="rotate(0 14 30)" visibility="inherit" oryx:fontSize="11"><tspan x="14" y="30" dy="11" id="ext-gen622">Finalizar</tspan></text>   </g></g><g class="children" style="overflow:hidden"/><g class="edge"/></g><g class="controls"><g class="dockers"/><g class="magnets" transform="translate(695, 52)"><g pointer-events="all" display="none" transform="translate(6, 6)"><circle cx="8" cy="8" r="4" stroke="none" fill="red" fill-opacity="0.3"/></g></g></g></g></g><g class="edge"/></g><g class="controls"><g class="dockers"/><g class="magnets" transform="translate(10, 40)"><g pointer-events="all" display="none" transform="translate(387.5, 67)"><circle cx="8" cy="8" r="4" stroke="none" fill="red" fill-opacity="0.3"/></g></g></g></g><g id="_ACE58CE0-14BF-4BF1-8DE2-9FDB3E1E2ECD" bpmn2nodeid="_017D9D9F-7E0F-4526-9577-C668621A2C39"><g class="stencils" transform="translate(10, 210)"><g class="me"><g pointer-events="painted" id="_ACE58CE0-14BF-4BF1-8DE2-9FDB3E1E2ECD">         <defs id="_ACE58CE0-14BF-4BF1-8DE2-9FDB3E1E2ECD__ACE58CE0-14BF-4BF1-8DE2-9FDB3E1E2ECD_3"> 		<radialGradient id="_ACE58CE0-14BF-4BF1-8DE2-9FDB3E1E2ECDbackground" cx="0%" cy="10%" r="100%" fx="20%" fy="10%"> 			<stop offset="0%" stop-color="#ffffff" stop-opacity="1" id="_ACE58CE0-14BF-4BF1-8DE2-9FDB3E1E2ECD__ACE58CE0-14BF-4BF1-8DE2-9FDB3E1E2ECD_4"/> 			<stop id="_ACE58CE0-14BF-4BF1-8DE2-9FDB3E1E2ECDfill_el" offset="100%" stop-color="#ffffff" stop-opacity="1"/> 		</radialGradient> 	</defs> 	   	 	<rect id="_ACE58CE0-14BF-4BF1-8DE2-9FDB3E1E2ECDborder" oryx:resize="vertical horizontal" x="0" y="0" width="791" height="171" stroke="#000000" stroke-width="1" fill="url(#_ACE58CE0-14BF-4BF1-8DE2-9FDB3E1E2ECDbackground) white"/> 	 	 	 	<path id="_ACE58CE0-14BF-4BF1-8DE2-9FDB3E1E2ECDframe2" style="fill:none;stroke-width:1" d=" M0 0  L0 171 " oryx:anchors="left top bottom" stroke="#000000"/> 	 	undefined 	     <text x="50" y="85.5" oryx:rotate="270" font-size="12" id="_ACE58CE0-14BF-4BF1-8DE2-9FDB3E1E2ECDtext_name" oryx:align="middle center" oryx:anchors="left" oryx:fittoelem="frame" stroke="black" stroke-width="0pt" letter-spacing="-0.01px" fill="#000000" text-anchor="middle" transform="rotate(270 50 85.5)" visibility="inherit" oryx:fontSize="12"><tspan x="50" y="85.5" dy="5">Sistema</tspan></text>   </g></g><g class="children" style="overflow:hidden"><g id="_D724E57B-A1A1-4CD9-9F04-A625562F35AE" bpmn2nodeid="_1CDAED6A-D71F-4CCF-B45F-97611D592F86"><g class="stencils" transform="translate(70, 65)"><g class="me"><g pointer-events="fill" id="_D724E57B-A1A1-4CD9-9F04-A625562F35AE">      <defs id="_D724E57B-A1A1-4CD9-9F04-A625562F35AE__D724E57B-A1A1-4CD9-9F04-A625562F35AE_5"> 		<radialGradient id="_D724E57B-A1A1-4CD9-9F04-A625562F35AEbackground" cx="10%" cy="10%" r="100%" fx="10%" fy="10%"> 			<stop offset="0%" stop-color="#ffffff" stop-opacity="1" id="_D724E57B-A1A1-4CD9-9F04-A625562F35AE__D724E57B-A1A1-4CD9-9F04-A625562F35AE_6"/> 			<stop id="_D724E57B-A1A1-4CD9-9F04-A625562F35AEfill_el" offset="100%" stop-color="#9acd32" stop-opacity="1"/> 		</radialGradient> 	</defs> 	     <circle id="_D724E57B-A1A1-4CD9-9F04-A625562F35AEbg_frame" cx="15" cy="15" r="15" stroke="#000000" fill="url(#_D724E57B-A1A1-4CD9-9F04-A625562F35AEbackground) white" stroke-width="1" style="stroke-dasharray: 5.5, 3"/>      <circle id="_D724E57B-A1A1-4CD9-9F04-A625562F35AEframe" cx="15" cy="15" r="15" stroke="#000000" fill="none" stroke-width="1" display="inherit"/>      <path id="_D724E57B-A1A1-4CD9-9F04-A625562F35AEbody" d=" M7.7124971 20.247342  L22.333334 20.247342  L15.022915000000001 7.575951200000001  L7.7124971 20.247342  z" stroke="black" style="fill:none;stroke-width:1.4;stroke-miterlimit:4;stroke-dasharray:none"/> 	<text font-size="11" id="_D724E57B-A1A1-4CD9-9F04-A625562F35AEtext_name" x="15" y="32" oryx:align="top center" stroke="black" stroke-width="0pt" letter-spacing="-0.01px" fill="#000000" text-anchor="middle" transform="rotate(0 15 32)" visibility="inherit" oryx:fontSize="11"><tspan x="15" y="32" dy="11">Iniciar Documentos en Trámite</tspan></text>   </g></g><g class="children" style="overflow:hidden"/><g class="edge"/></g><g class="controls"><g class="dockers"/><g class="magnets" transform="translate(70, 65)"><g pointer-events="all" display="none" transform="translate(7, 7)"><circle cx="8" cy="8" r="4" stroke="none" fill="red" fill-opacity="0.3"/></g></g></g></g><g id="_F62BAFB1-6F87-4254-A7A8-4B689C1498B4" bpmn2nodeid="_0E5D9609-93F1-4530-A016-6CD208E5759A"><g class="stencils" transform="translate(210, 55)"><g class="me"><g pointer-events="fill" oryx:minimumSize="50 40" id="_F62BAFB1-6F87-4254-A7A8-4B689C1498B4">   	<defs id="_F62BAFB1-6F87-4254-A7A8-4B689C1498B4__F62BAFB1-6F87-4254-A7A8-4B689C1498B4_17"> 		<radialGradient id="_F62BAFB1-6F87-4254-A7A8-4B689C1498B4background" cx="10%" cy="10%" r="100%" fx="10%" fy="10%"> 			<stop offset="0%" stop-color="#ffffff" stop-opacity="1" id="_F62BAFB1-6F87-4254-A7A8-4B689C1498B4__F62BAFB1-6F87-4254-A7A8-4B689C1498B4_18"/> 			<stop id="_F62BAFB1-6F87-4254-A7A8-4B689C1498B4fill_el" offset="100%" stop-color="#fafad2" stop-opacity="1"/> 		</radialGradient> 		<radialGradient id="_F62BAFB1-6F87-4254-A7A8-4B689C1498B4borderbackground" cx="10%" cy="10%" r="100%" fx="10%" fy="10%"> 			<stop offset="0%" stop-color="#ffffff" stop-opacity="1" id="_F62BAFB1-6F87-4254-A7A8-4B689C1498B4__F62BAFB1-6F87-4254-A7A8-4B689C1498B4_19"/> 			<stop id="_F62BAFB1-6F87-4254-A7A8-4B689C1498B4fill_border" offset="100%" stop-color="#000000" stop-opacity="1" stroke="#000000"/> 		</radialGradient> 	</defs> 	 	<rect id="_F62BAFB1-6F87-4254-A7A8-4B689C1498B4text_frame" oryx:anchors="bottom top right left" x="1" y="1" width="104" height="49" rx="10" ry="10" stroke="none" stroke-width="0" fill="none"/> 	<rect id="_F62BAFB1-6F87-4254-A7A8-4B689C1498B4bg_frame" oryx:resize="vertical horizontal" x="0" y="0" width="110.00000000000001" height="50" rx="10" ry="10" stroke="#000000" stroke-width="1" fill="url(#_F62BAFB1-6F87-4254-A7A8-4B689C1498B4background) #ffffcc"/> 		<text font-size="12" id="_F62BAFB1-6F87-4254-A7A8-4B689C1498B4text_name" x="55.00000000000001" y="25" oryx:align="middle center" oryx:fittoelem="text_frame" stroke="black" text-anchor="middle" stroke-width="0pt" letter-spacing="-0.01px" fill="#000000" transform="rotate(0 55.00000000000001 25)" visibility="inherit" oryx:fontSize="12"><tspan x="55.00000000000001" y="25" dy="5">Iniciar Variables</tspan></text>     <g id="_F62BAFB1-6F87-4254-A7A8-4B689C1498B4manualTask" transform="scale(0.7,0.7) translate(8,8)" display="none">     	<path oryx:anchors="top left" id="_F62BAFB1-6F87-4254-A7A8-4B689C1498B4frame" style="opacity:1;fill:none;fill-opacity:1;stroke-width:1" d="M0.5,3.751l4.083-3.25c0,0,11.166,0.083,12.083,0.083s-2.417,2.917-1.5,2.917     s11.667,0,12.584,0c1.166,1.708-0.168,3.167-0.834,3.667s0.875,1.917-1,4.417c-0.75,0.25,0.75,1.875-1.333,3.333     c-1.167,0.583,0.583,1.542-1.25,2.833c-1.167,0-20.833,0.083-20.833,0.083l-2-1.333V3.751z" stroke="#000000"/> 		<path id="_F62BAFB1-6F87-4254-A7A8-4B689C1498B4frame2" oryx:anchors="top left" style="opacity:1;fill:none;stroke-width:2" d="M 13.5 7 L 27 7" stroke="#000000"/> 		<path id="_F62BAFB1-6F87-4254-A7A8-4B689C1498B4frame3" oryx:anchors="top left" style="opacity:1;fill:none;stroke-width:2" d="M 13.5 11 L 26 11" stroke="#000000"/> 		<path id="_F62BAFB1-6F87-4254-A7A8-4B689C1498B4frame4" oryx:anchors="top left" style="opacity:1;fill:none;stroke-width:1.5" d="M 14 14.5 L 25 14.5" stroke="#000000"/> 		<path id="_F62BAFB1-6F87-4254-A7A8-4B689C1498B4frame5" oryx:anchors="top left" style="opacity:1;fill:none;stroke-width:1.5" d="M 8.2 3.1 L 15 3.1" stroke="#000000"/> 	</g> 	 	<g id="_F62BAFB1-6F87-4254-A7A8-4B689C1498B4businessRuleTask" transform="scale(0.7,0.7) translate(8,8)" display="none"> 		<rect id="_F62BAFB1-6F87-4254-A7A8-4B689C1498B4frame6" oryx:anchors="top left" x="0" y="0" width="22" height="4" style="opacity:1;fill:#B3B1B3;fill-opacity:1;" stroke="#000000"/> 		<rect id="_F62BAFB1-6F87-4254-A7A8-4B689C1498B4frame7" oryx:anchors="top left" x="0" y="4" style="opacity:1;fill:none;" width="22" height="12" stroke="#000000"/> 		<path id="_F62BAFB1-6F87-4254-A7A8-4B689C1498B4frame8" oryx:anchors="top left" style="opacity:1;fill:none;" d="M 0 10 L 22 10" stroke="#000000"/> 		<path id="_F62BAFB1-6F87-4254-A7A8-4B689C1498B4frame9" oryx:anchors="top left" style="opacity:1; fill:none;" d="M 7 4 L 7 16" stroke="#000000"/> 	</g> 	 	<g id="_F62BAFB1-6F87-4254-A7A8-4B689C1498B4scriptTask" transform="scale(0.7,0.7) translate(8,8)" display="inherit"> 		<path oryx:anchors="top left" id="_F62BAFB1-6F87-4254-A7A8-4B689C1498B4frame10" style="opacity:1;fill:none;" stroke="#000000" d="M6.402,0.5h14.5c0,0-5.833,2.833-5.833,5.583s4.417,6,4.417,9.167    s-4.167,5.083-4.167,5.083H0.235c0,0,5-2.667,5-5s-4.583-6.75-4.583-9.25S6.402,0.5,6.402,0.5z"/> 		<path oryx:anchors="top left" id="_F62BAFB1-6F87-4254-A7A8-4B689C1498B4frame11" style="opacity:1;fill:none;stroke-width:1.5" d="M 3.5 4.5 L 13.5 4.5" stroke="#000000"/> 		<path oryx:anchors="top left" id="_F62BAFB1-6F87-4254-A7A8-4B689C1498B4frame12" style="opacity:1;fill:none;stroke-width:1.5" d="M 3.8 8.5 L 13.8 8.5" stroke="#000000"/> 		<path oryx:anchors="top left" id="_F62BAFB1-6F87-4254-A7A8-4B689C1498B4frame13" style="opacity:1;fill:none;stroke-width:1.5" d="M 6.3 12.5 L 16.3 12.5" stroke="#000000"/> 		<path oryx:anchors="top left" id="_F62BAFB1-6F87-4254-A7A8-4B689C1498B4frame14" style="opacity:1;fill:none;stroke-width:1.5" d="M 6.5 16.5 L 16.5 16.5" stroke="#000000"/> 	</g> 	 	<g id="_F62BAFB1-6F87-4254-A7A8-4B689C1498B4userTask" transform="scale(0.7,0.7) translate(8,8)" display="none"> 		<path id="_F62BAFB1-6F87-4254-A7A8-4B689C1498B4frame15" oryx:anchors="top left" style="opacity:1;fill:#F4F6F7" stroke="#000000" d="M0.585,24.167h24.083v-7.833c0,0-2.333-3.917-7.083-5.167h-9.25    c-4.417,1.333-7.833,5.75-7.833,5.75L0.585,24.167z"/> 		<path id="_F62BAFB1-6F87-4254-A7A8-4B689C1498B4frame16" oryx:anchors="top left" style="opacity:1;fill:none" d="M 6 20 L 6 24" stroke="#000000"/> 		<path id="_F62BAFB1-6F87-4254-A7A8-4B689C1498B4frame17" oryx:anchors="top left" style="opacity:1;fill:none" d="M 20 20 L 20 24" stroke="#000000"/> 		<circle id="_F62BAFB1-6F87-4254-A7A8-4B689C1498B4frame18" oryx:anchors="top left" fill="black" cx="13.002" cy="5.916" r="5.417" stroke="#000000"/> 		<path id="_F62BAFB1-6F87-4254-A7A8-4B689C1498B4frame19" oryx:anchors="top left" style="opacity:1;fill:#F0EFF0;" stroke="#000000" d="M8.043,7.083c0,0,2.814-2.426,5.376-1.807s4.624-0.693,4.624-0.693    c0.25,1.688,0.042,3.75-1.458,5.584c0,0,1.083,0.75,1.083,1.5s0.125,1.875-1,3s-5.5,1.25-6.75,0S8.668,12.834,8.668,12    s0.583-1.25,1.25-1.917C8.835,9.5,7.419,7.708,8.043,7.083z"/> 	</g> 	 	<g id="_F62BAFB1-6F87-4254-A7A8-4B689C1498B4serviceTask" transform="scale(0.7,0.7) translate(8,8)" display="none"> 		<polygon oryx:anchors="top left" id="_F62BAFB1-6F87-4254-A7A8-4B689C1498B4frame20" style="opacity:1;fill:#ffffff" stroke="#000000" points="15.392,5.064 17.954,2.502 20.347,4.895 17.786,7.455     18.729,9.732 22.353,9.732 22.353,13.115 18.731,13.115 17.788,15.392 20.351,17.955 17.958,20.347 15.397,17.786 13.12,18.729     13.12,22.353 9.737,22.353 9.737,18.731 7.46,17.788 4.897,20.35 2.506,17.958 5.066,15.397 4.124,13.12 0.5,13.12 0.5,9.737     4.121,9.737 5.065,7.461 2.503,4.898 4.895,2.506 7.455,5.066 9.732,4.125 9.732,0.5 13.116,0.5 13.116,4.121 "/> 		<circle oryx:anchors="top left" id="_F62BAFB1-6F87-4254-A7A8-4B689C1498B4frame21" style="opacity:1;fill:none" stroke="#000000" cx="11.427" cy="11.426" r="3.714"/> 		<polygon oryx:anchors="top left" id="_F62BAFB1-6F87-4254-A7A8-4B689C1498B4frame22" style="opacity:1;fill:#ffffff" stroke="#000000" points="21.392,11.064 23.954,8.502 26.347,10.895 23.786,13.455     24.729,15.732 28.353,15.732 28.353,19.115 24.731,19.115 23.788,21.392 26.351,23.955 23.958,26.347 21.397,23.786 19.12,24.729     19.12,28.353 15.737,28.353 15.737,24.731 13.46,23.788 10.897,26.35 8.506,23.958 11.066,21.397 10.124,19.12 6.5,19.12     6.5,15.737 10.121,15.737 11.065,13.461 8.503,10.898 10.895,8.506 13.455,11.066 15.732,10.125 15.732,6.5 19.116,6.5     19.116,10.121 "/> 		<circle oryx:anchors="top left" id="_F62BAFB1-6F87-4254-A7A8-4B689C1498B4frame23" style="opacity:1;fill:none;" stroke="#000000" cx="17.427" cy="17.426" r="3.714"/> 	</g> 	 	<g id="_F62BAFB1-6F87-4254-A7A8-4B689C1498B4sendTask" display="none"> 		<path id="_F62BAFB1-6F87-4254-A7A8-4B689C1498B4stframe24" oryx:anchors="left top" stroke="#FFFFFF" fill="black" stroke-width="1" d="M8,11 L8,21 L24,21 L24,11 L16,17z"/> 		<path id="_F62BAFB1-6F87-4254-A7A8-4B689C1498B4stframe25" oryx:anchors="left top" stroke="#FFFFFF" fill="black" stroke-width="1" d="M7,10 L16,17 L25 10z"/> 	</g> 	 	<g id="_F62BAFB1-6F87-4254-A7A8-4B689C1498B4receiveTask" display="none"> 		<path id="_F62BAFB1-6F87-4254-A7A8-4B689C1498B4frame26" oryx:anchors="left top" stroke="#000000" fill="none" stroke-width="1" d="M8,11 L8,21 L24,21 L24,11z M8,11 L16,17 L24,11"/> 	</g> 	 	<g id="_F62BAFB1-6F87-4254-A7A8-4B689C1498B4none" display="inherit"/>  	<g id="_F62BAFB1-6F87-4254-A7A8-4B689C1498B4sequential" display="none">         <path oryx:anchors="bottom" fill="none" stroke="#000000" stroke-width="2" d=" M51.1 46  h10  M51.1 42  h10  M51.1 38  h10 " id="_F62BAFB1-6F87-4254-A7A8-4B689C1498B4__F62BAFB1-6F87-4254-A7A8-4B689C1498B4_20"/>     </g>   </g></g><g class="children" style="overflow:hidden"/><g class="edge"/></g><g class="controls"><g class="dockers"/><g class="magnets" transform="translate(210, 55)"><g pointer-events="all" display="none" transform="translate(-7, 4.5)"><circle cx="8" cy="8" r="4" stroke="none" fill="red" fill-opacity="0.3"/></g><g pointer-events="all" display="none" transform="translate(-7, 17)"><circle cx="8" cy="8" r="4" stroke="none" fill="red" fill-opacity="0.3"/></g><g pointer-events="all" display="none" transform="translate(-7, 29.5)"><circle cx="8" cy="8" r="4" stroke="none" fill="red" fill-opacity="0.3"/></g><g pointer-events="all" display="none" transform="translate(19.500000000000004, 41)"><circle cx="8" cy="8" r="4" stroke="none" fill="red" fill-opacity="0.3"/></g><g pointer-events="all" display="none" transform="translate(47.00000000000001, 41)"><circle cx="8" cy="8" r="4" stroke="none" fill="red" fill-opacity="0.3"/></g><g pointer-events="all" display="none" transform="translate(74.5, 41)"><circle cx="8" cy="8" r="4" stroke="none" fill="red" fill-opacity="0.3"/></g><g pointer-events="all" display="none" transform="translate(101, 4.5)"><circle cx="8" cy="8" r="4" stroke="none" fill="red" fill-opacity="0.3"/></g><g pointer-events="all" display="none" transform="translate(101, 17)"><circle cx="8" cy="8" r="4" stroke="none" fill="red" fill-opacity="0.3"/></g><g pointer-events="all" display="none" transform="translate(101, 29.5)"><circle cx="8" cy="8" r="4" stroke="none" fill="red" fill-opacity="0.3"/></g><g pointer-events="all" display="none" transform="translate(19.500000000000004, -7)"><circle cx="8" cy="8" r="4" stroke="none" fill="red" fill-opacity="0.3"/></g><g pointer-events="all" display="none" transform="translate(47.00000000000001, -7)"><circle cx="8" cy="8" r="4" stroke="none" fill="red" fill-opacity="0.3"/></g><g pointer-events="all" display="none" transform="translate(74.5, -7)"><circle cx="8" cy="8" r="4" stroke="none" fill="red" fill-opacity="0.3"/></g><g pointer-events="all" display="none" transform="translate(47.00000000000001, 17)"><circle cx="8" cy="8" r="4" stroke="none" fill="red" fill-opacity="0.3"/></g></g></g></g></g><g class="edge"/></g><g class="controls"><g class="dockers"/><g class="magnets" transform="translate(10, 210)"><g pointer-events="all" display="none" transform="translate(387.5, 77.5)"><circle cx="8" cy="8" r="4" stroke="none" fill="red" fill-opacity="0.3"/></g></g></g></g></g><g class="edge"><g id="_EEBE2E04-FF0D-4005-97EF-3E54659EDC99" bpmn2nodeid="_C21FCBB6-5B81-43ED-A728-F142A36509DB"><g class="stencils"><g class="me"><g pointer-events="painted" bpmn2nodeid="_A1A5852C-76F4-4A8D-BCAD-D08B5E62A3ED"><path id="_EEBE2E04-FF0D-4005-97EF-3E54659EDC99_1" d="M110.5307301143397 103.50099129401096L188 106 L265.0546875 106 " stroke="#000000" fill="none" stroke-width="2" stroke-linecap="round" stroke-linejoin="round" marker-start="url(#_EEBE2E04-FF0D-4005-97EF-3E54659EDC99start)" marker-end="url(#_EEBE2E04-FF0D-4005-97EF-3E54659EDC99end)"/></g><text id="_EEBE2E04-FF0D-4005-97EF-3E54659EDC99text_name" font-size="12" x="124.5307301143397" y="89.50099129401096" oryx:edgePosition="startTop" stroke-width="0pt" letter-spacing="-0.01px" fill="#000000" text-anchor="start" transform="rotate(1.8476102659946037 110.5307301143397 103.50099129401096)" visibility="inherit" oryx:fontSize="12"/></g><g class="children" style="overflow:hidden"/><g class="edge"/></g><g class="controls"><g class="dockers"/><g class="magnets"/></g></g><g id="_6E9C88E7-FD7F-424D-AFC5-6A858A11B29F" bpmn2nodeid="_B1E9C93E-7A7F-44DB-B16B-8B5FF773D0D3"><g class="stencils"><g class="me"><g pointer-events="painted" bpmn2nodeid="_87C3A1F9-F18E-47C9-A01F-D50E4DE3DCB3"><path id="_6E9C88E7-FD7F-424D-AFC5-6A858A11B29F_1" d="M305.140625 106L374.234375 106 " stroke="#000000" fill="none" stroke-width="2" stroke-linecap="round" stroke-linejoin="round" marker-start="url(#_6E9C88E7-FD7F-424D-AFC5-6A858A11B29Fstart)" marker-end="url(#_6E9C88E7-FD7F-424D-AFC5-6A858A11B29Fend)"/></g><text id="_6E9C88E7-FD7F-424D-AFC5-6A858A11B29Ftext_name" font-size="12" x="319.140625" y="92" oryx:edgePosition="startTop" stroke-width="0pt" letter-spacing="-0.01px" fill="#000000" text-anchor="start" transform="rotate(360 305.140625 106)" visibility="inherit" oryx:fontSize="12"/></g><g class="children" style="overflow:hidden"/><g class="edge"/></g><g class="controls"><g class="dockers"/><g class="magnets"/></g></g><g id="_C93B31F8-B99D-4A32-B3C2-E4533387F4C6" bpmn2nodeid="_CD0A34A8-D071-4738-8EC7-AC6AB84B2763"><g class="stencils"><g class="me"><g pointer-events="painted" bpmn2nodeid="_5AB2D1EE-ECF3-4F8D-8B25-12187ED63E66"><path id="_C93B31F8-B99D-4A32-B3C2-E4533387F4C6_1" d="M545.984375 106L704.84765625 106 " stroke="#000000" fill="none" stroke-width="2" stroke-linecap="round" stroke-linejoin="round" marker-start="url(#_C93B31F8-B99D-4A32-B3C2-E4533387F4C6start)" marker-end="url(#_C93B31F8-B99D-4A32-B3C2-E4533387F4C6end)"/></g><text id="_C93B31F8-B99D-4A32-B3C2-E4533387F4C6text_name" font-size="12" x="559.984375" y="92" oryx:edgePosition="startTop" stroke-width="0pt" letter-spacing="-0.01px" fill="#000000" text-anchor="start" transform="rotate(360 545.984375 106)" visibility="inherit" oryx:fontSize="12"/></g><g class="children" style="overflow:hidden"/><g class="edge"/></g><g class="controls"><g class="dockers"/><g class="magnets"/></g></g><g id="_C8CC0E38-2AD4-4397-9380-9552FF04A9C5" bpmn2nodeid="_0151CFC9-31E3-4B06-8BAC-077CE8CDAA28"><g class="stencils"><g class="me"><g pointer-events="painted" bpmn2nodeid="_6087458B-1379-4985-8979-D0FD1D593840"><path id="_C8CC0E38-2AD4-4397-9380-9552FF04A9C5_1" d="M110.0625 290L219.15625 290 " stroke="#000000" fill="none" stroke-width="2" stroke-linecap="round" stroke-linejoin="round" marker-start="url(#_C8CC0E38-2AD4-4397-9380-9552FF04A9C5start)" marker-end="url(#_C8CC0E38-2AD4-4397-9380-9552FF04A9C5end)"/></g><text id="_C8CC0E38-2AD4-4397-9380-9552FF04A9C5text_name" font-size="12" x="124.0625" y="276" oryx:edgePosition="startTop" stroke-width="0pt" letter-spacing="-0.01px" fill="#000000" text-anchor="start" transform="rotate(360 110.0625 290)" visibility="inherit" oryx:fontSize="12"/></g><g class="children" style="overflow:hidden"/><g class="edge"/></g><g class="controls"><g class="dockers"/><g class="magnets"/></g></g><g id="_9F21BEF1-F9B1-46FE-81FE-C23B5BB87DBB" bpmn2nodeid="_E9141CD8-78AA-475D-BE77-41BD05608DE1"><g class="stencils"><g class="me"><g pointer-events="painted" bpmn2nodeid="_20CD79FA-4859-4D13-94F2-A5C8E1DC934E"><path id="_9F21BEF1-F9B1-46FE-81FE-C23B5BB87DBB_1" d="M275 264.5625L275 198 L285 198 L285 125.6875 " stroke="#000000" fill="none" stroke-width="2" stroke-linecap="round" stroke-linejoin="round" marker-start="url(#_9F21BEF1-F9B1-46FE-81FE-C23B5BB87DBBstart)" marker-end="url(#_9F21BEF1-F9B1-46FE-81FE-C23B5BB87DBBend)"/></g><text id="_9F21BEF1-F9B1-46FE-81FE-C23B5BB87DBBtext_name" font-size="12" x="289" y="250.5625" oryx:edgePosition="startTop" stroke-width="0pt" letter-spacing="-0.01px" fill="#000000" text-anchor="start" transform="rotate(270 275 264.5625)" visibility="inherit" oryx:fontSize="12"/></g><g class="children" style="overflow:hidden"/><g class="edge"/></g><g class="controls"><g class="dockers"/><g class="magnets"/></g></g></g><text id="_F0A41794-BF32-4257-A415-E28D1E7D7CEB" style="stroke-width:1;fill:rgb(177,194,214);font-family:arial;font-weight:bold" font-size="12" onclick="ORYX.Plugins.CanvasTitle.openTextualAnalysis()" onmouseover="ORYX.Plugins.CanvasTitle.addToolTip('_F0A41794-BF32-4257-A415-E28D1E7D7CEB')" transform="translate(10, 20)">produccion-multiples-documentos v.1.0 (proceso.produccion-multiples-documentos)</text></g></g></svg>